<?xml version="1.0" encoding="utf-8"?>
<!-- Generator: Adobe Illustrator 16.0.0, SVG Export Plug-In . SVG Version: 6.00 Build 0)  -->
<!DOCTYPE svg PUBLIC "-//W3C//DTD SVG 1.1//EN" "http://www.w3.org/Graphics/SVG/1.1/DTD/svg11.dtd">
<svg version="1.1" id="Layer_1" xmlns="http://www.w3.org/2000/svg" xmlns:xlink="http://www.w3.org/1999/xlink" x="0px" y="0px"
	 width="169.164px" height="64.855px" viewBox="0 0 169.164 64.855" enable-background="new 0 0 169.164 64.855"
	 xml:space="preserve">
<g>
	<path fill="#5A5B5D" d="M166.79,27.64c0.966,0.79,1.605,1.869,1.913,3.229c0.133,1.408,0.286,2.796,0.461,4.158v0.725
		c0,1.848-0.625,3.311-1.88,4.388c-1.252,1.076-2.782,1.619-4.584,1.619h-10.291c-1.538,0-2.971-0.439-4.29-1.322
		c-1.497-1.014-2.246-2.266-2.246-3.761v-2.865l6.109-0.013v2.932h9.025l-0.044-3.302L147.7,22.492
		c-0.689-0.615-1.208-1.353-1.524-2.21c-0.333-0.856-0.5-1.813-0.5-2.87v-1.451c0-2.552,0.706-4.377,2.113-5.477
		c1.1-0.834,2.705-1.254,4.814-1.254h10.096c1.847,0,3.354,0.561,4.518,1.681c1.169,1.124,1.752,2.813,1.752,4.749v1.745h-6.242
		v-3.331h-9.034l0.027,3.016L166.79,27.64z"/>
	<path fill="#5A5B5D" d="M21.708,0c1.626,0,3.024,0.517,4.187,1.551c1.168,1.034,1.75,2.363,1.75,3.992v2.537h-6.103v-3.46H9.237
		v32.525h9.238V23.222V18.54h9.169v16.691c0,1.977-0.593,3.561-1.781,4.75c-1.187,1.188-2.771,1.784-4.751,1.784H6.73
		c-1.933,0-3.538-0.553-4.816-1.651C0.639,39.013,0,37.518,0,35.626V6.467C0,4.662,0.628,3.133,1.879,1.88
		C3.135,0.626,4.684,0,6.533,0H21.708z"/>
	<path fill="#5A5B5D" d="M121.058,41.743c-2.198,0-3.977-0.509-5.338-1.519c-1.54-1.143-2.309-2.811-2.309-5.008V9.247h9.271
		l-0.044,3.535v24.211h9.163V9.247h9.225v32.496H121.058z"/>
	<path fill="#5A5B5D" d="M106.835,11.129c-1.074-1.254-2.622-1.882-4.646-1.882H90.327V0.021h-9.293v37.777v3.944h20.763
		c2.196,0,3.854-0.65,4.975-1.947c1.119-1.294,1.68-3.042,1.68-5.238V16.035C108.452,14.016,107.915,12.379,106.835,11.129z
		 M99.422,36.991h-9.096V13.925h9.096V36.991z"/>
	<rect x="33.369" y="0.021" fill="#5A5B5D" width="9.291" height="41.721"/>
	<g>
		<path fill="#5A5B5D" d="M113.6,49.057v12.756h-2.642V49.057H113.6z"/>
		<path fill="#5A5B5D" d="M118.764,50.557c0,0.21-0.042,0.408-0.128,0.592c-0.085,0.185-0.202,0.347-0.349,0.486
			c-0.148,0.139-0.32,0.25-0.516,0.333c-0.196,0.083-0.405,0.124-0.626,0.124c-0.216,0-0.417-0.041-0.605-0.124
			s-0.354-0.193-0.499-0.333s-0.258-0.301-0.341-0.486c-0.083-0.184-0.124-0.382-0.124-0.592c0-0.216,0.041-0.418,0.124-0.605
			c0.083-0.187,0.196-0.352,0.341-0.494c0.145-0.142,0.311-0.252,0.499-0.332s0.389-0.12,0.605-0.12c0.222,0,0.43,0.04,0.626,0.12
			c0.196,0.08,0.368,0.19,0.516,0.332c0.147,0.142,0.264,0.307,0.349,0.494C118.721,50.139,118.764,50.341,118.764,50.557z
			 M118.457,52.977v8.836h-2.642v-8.836H118.457z"/>
		<path fill="#5A5B5D" d="M123.706,52.823c0.375,0,0.729,0.037,1.061,0.111c0.333,0.074,0.641,0.179,0.925,0.315h2.667v0.963
			c0,0.148-0.042,0.264-0.124,0.35c-0.083,0.085-0.223,0.15-0.422,0.196l-0.647,0.145c0.08,0.255,0.119,0.52,0.119,0.792
			c0,0.443-0.092,0.841-0.277,1.193c-0.185,0.353-0.438,0.652-0.758,0.899c-0.321,0.247-0.7,0.438-1.138,0.571
			c-0.438,0.134-0.906,0.201-1.406,0.201c-0.278,0-0.54-0.017-0.784-0.051c-0.193,0.115-0.29,0.247-0.29,0.396
			c0,0.149,0.078,0.257,0.234,0.323s0.362,0.112,0.618,0.138c0.255,0.026,0.548,0.039,0.877,0.039s0.665,0.016,1.005,0.047
			c0.341,0.032,0.676,0.084,1.006,0.158c0.329,0.074,0.622,0.194,0.877,0.359c0.256,0.165,0.461,0.386,0.618,0.662
			c0.156,0.277,0.234,0.628,0.234,1.056c0,0.398-0.097,0.789-0.29,1.171c-0.193,0.381-0.477,0.721-0.852,1.017
			s-0.835,0.534-1.38,0.714c-0.545,0.179-1.17,0.269-1.875,0.269c-0.693,0-1.291-0.065-1.793-0.196
			c-0.503-0.131-0.92-0.303-1.252-0.516c-0.333-0.213-0.578-0.459-0.737-0.738s-0.239-0.568-0.239-0.87
			c0-0.393,0.12-0.724,0.358-0.994c0.239-0.27,0.565-0.482,0.98-0.636c-0.199-0.13-0.358-0.297-0.477-0.502
			c-0.119-0.204-0.179-0.462-0.179-0.774c0-0.13,0.023-0.268,0.068-0.413s0.116-0.285,0.213-0.421s0.219-0.267,0.367-0.392
			c0.147-0.125,0.324-0.235,0.528-0.332c-0.46-0.244-0.822-0.568-1.086-0.972c-0.264-0.403-0.396-0.872-0.396-1.406
			c0-0.443,0.094-0.842,0.281-1.197s0.444-0.656,0.771-0.903s0.712-0.438,1.155-0.571C122.709,52.89,123.189,52.823,123.706,52.823z
			 M125.666,62.118c0-0.146-0.044-0.261-0.132-0.348c-0.088-0.087-0.208-0.157-0.358-0.209c-0.151-0.052-0.327-0.09-0.528-0.113
			c-0.202-0.023-0.419-0.035-0.652-0.035s-0.475,0-0.725,0s-0.497-0.024-0.741-0.073c-0.165,0.114-0.3,0.241-0.405,0.38
			s-0.158,0.297-0.158,0.474c0,0.125,0.027,0.239,0.081,0.342s0.149,0.19,0.286,0.265s0.319,0.132,0.549,0.175
			c0.23,0.042,0.521,0.064,0.874,0.064c0.38,0,0.693-0.023,0.938-0.07c0.244-0.046,0.439-0.11,0.583-0.191
			c0.145-0.081,0.246-0.178,0.303-0.292C125.637,62.374,125.666,62.251,125.666,62.118z M123.706,56.93
			c0.438,0,0.754-0.109,0.95-0.328c0.196-0.218,0.294-0.501,0.294-0.848c0-0.358-0.098-0.639-0.294-0.844
			c-0.196-0.205-0.513-0.307-0.95-0.307s-0.754,0.102-0.95,0.307c-0.196,0.205-0.294,0.486-0.294,0.844
			c0,0.17,0.024,0.327,0.072,0.469s0.124,0.266,0.226,0.371c0.103,0.105,0.231,0.188,0.388,0.247S123.49,56.93,123.706,56.93z"/>
		<path fill="#5A5B5D" d="M129.5,61.813V49.057h2.642v4.695c0.318-0.273,0.663-0.493,1.036-0.661
			c0.372-0.167,0.816-0.251,1.333-0.251c0.482,0,0.91,0.083,1.282,0.251c0.372,0.168,0.686,0.401,0.942,0.699
			c0.255,0.298,0.448,0.653,0.579,1.065s0.196,0.859,0.196,1.342v5.616h-2.642v-5.616c0-0.432-0.1-0.768-0.298-1.01
			c-0.199-0.241-0.492-0.362-0.878-0.362c-0.29,0-0.562,0.063-0.818,0.188s-0.5,0.292-0.733,0.502v6.297H129.5z"/>
		<path fill="#5A5B5D" d="M142.486,61.949c-0.421,0-0.792-0.061-1.112-0.183s-0.591-0.295-0.81-0.52
			c-0.219-0.224-0.385-0.495-0.499-0.813s-0.17-0.673-0.17-1.065V54.8h-0.75c-0.137,0-0.253-0.044-0.35-0.132
			s-0.145-0.217-0.145-0.388v-1.031l1.406-0.272l0.52-2.156c0.068-0.273,0.261-0.409,0.58-0.409h1.38v2.582h2.147V54.8h-2.147v4.389
			c0,0.205,0.05,0.374,0.149,0.507c0.099,0.134,0.243,0.2,0.43,0.2c0.097,0,0.177-0.01,0.243-0.03
			c0.065-0.02,0.122-0.042,0.17-0.068c0.048-0.026,0.094-0.048,0.137-0.068c0.042-0.02,0.092-0.03,0.149-0.03
			c0.08,0,0.144,0.019,0.192,0.055c0.048,0.037,0.098,0.095,0.149,0.175l0.801,1.253c-0.341,0.255-0.724,0.447-1.15,0.575
			C143.381,61.885,142.94,61.949,142.486,61.949z"/>
		<path fill="#5A5B5D" d="M149.235,50.557c0,0.21-0.042,0.408-0.128,0.592c-0.085,0.185-0.202,0.347-0.349,0.486
			c-0.148,0.139-0.32,0.25-0.516,0.333c-0.196,0.083-0.405,0.124-0.626,0.124c-0.216,0-0.417-0.041-0.605-0.124
			s-0.354-0.193-0.499-0.333s-0.258-0.301-0.341-0.486c-0.083-0.184-0.124-0.382-0.124-0.592c0-0.216,0.041-0.418,0.124-0.605
			c0.083-0.187,0.196-0.352,0.341-0.494c0.145-0.142,0.311-0.252,0.499-0.332s0.389-0.12,0.605-0.12c0.222,0,0.43,0.04,0.626,0.12
			c0.196,0.08,0.368,0.19,0.516,0.332c0.147,0.142,0.264,0.307,0.349,0.494C149.192,50.139,149.235,50.341,149.235,50.557z
			 M148.928,52.977v8.836h-2.642v-8.836H148.928z"/>
		<path fill="#5A5B5D" d="M151.058,61.813v-8.836h1.636c0.165,0,0.302,0.037,0.413,0.111s0.189,0.185,0.234,0.332l0.153,0.511
			c0.17-0.159,0.347-0.307,0.528-0.443c0.182-0.136,0.376-0.251,0.584-0.345c0.207-0.094,0.432-0.167,0.673-0.222
			c0.242-0.054,0.504-0.081,0.789-0.081c0.482,0,0.91,0.083,1.282,0.251c0.372,0.168,0.686,0.401,0.942,0.699
			c0.255,0.298,0.448,0.653,0.579,1.065s0.196,0.859,0.196,1.342v5.616h-2.642v-5.616c0-0.432-0.1-0.768-0.298-1.01
			c-0.199-0.241-0.492-0.362-0.878-0.362c-0.29,0-0.562,0.063-0.818,0.188s-0.5,0.292-0.733,0.502v6.297H151.058z"/>
		<path fill="#5A5B5D" d="M164.061,52.823c0.375,0,0.729,0.037,1.061,0.111c0.333,0.074,0.641,0.179,0.925,0.315h2.667v0.963
			c0,0.148-0.042,0.264-0.124,0.35c-0.083,0.085-0.223,0.15-0.422,0.196l-0.647,0.145c0.08,0.255,0.119,0.52,0.119,0.792
			c0,0.443-0.092,0.841-0.277,1.193c-0.185,0.353-0.438,0.652-0.758,0.899c-0.321,0.247-0.7,0.438-1.138,0.571
			c-0.438,0.134-0.906,0.201-1.406,0.201c-0.278,0-0.54-0.017-0.784-0.051c-0.193,0.115-0.29,0.247-0.29,0.396
			c0,0.149,0.078,0.257,0.234,0.323s0.362,0.112,0.618,0.138c0.255,0.026,0.548,0.039,0.877,0.039s0.665,0.016,1.005,0.047
			c0.341,0.032,0.676,0.084,1.006,0.158c0.329,0.074,0.622,0.194,0.877,0.359c0.256,0.165,0.461,0.386,0.618,0.662
			c0.156,0.277,0.234,0.628,0.234,1.056c0,0.398-0.097,0.789-0.29,1.171c-0.193,0.381-0.477,0.721-0.852,1.017
			s-0.835,0.534-1.38,0.714c-0.545,0.179-1.17,0.269-1.875,0.269c-0.693,0-1.291-0.065-1.793-0.196
			c-0.503-0.131-0.92-0.303-1.252-0.516c-0.333-0.213-0.578-0.459-0.737-0.738s-0.239-0.568-0.239-0.87
			c0-0.393,0.12-0.724,0.358-0.994c0.239-0.27,0.565-0.482,0.98-0.636c-0.199-0.13-0.358-0.297-0.477-0.502
			c-0.119-0.204-0.179-0.462-0.179-0.774c0-0.13,0.023-0.268,0.068-0.413s0.116-0.285,0.213-0.421s0.219-0.267,0.367-0.392
			c0.147-0.125,0.324-0.235,0.528-0.332c-0.46-0.244-0.822-0.568-1.086-0.972c-0.264-0.403-0.396-0.872-0.396-1.406
			c0-0.443,0.094-0.842,0.281-1.197s0.444-0.656,0.771-0.903s0.712-0.438,1.155-0.571C163.064,52.89,163.544,52.823,164.061,52.823z
			 M166.021,62.118c0-0.146-0.044-0.261-0.132-0.348c-0.088-0.087-0.208-0.157-0.358-0.209c-0.151-0.052-0.327-0.09-0.528-0.113
			c-0.202-0.023-0.419-0.035-0.652-0.035s-0.475,0-0.725,0s-0.497-0.024-0.741-0.073c-0.165,0.114-0.3,0.241-0.405,0.38
			s-0.158,0.297-0.158,0.474c0,0.125,0.027,0.239,0.081,0.342s0.149,0.19,0.286,0.265s0.319,0.132,0.549,0.175
			c0.23,0.042,0.521,0.064,0.874,0.064c0.38,0,0.693-0.023,0.938-0.07c0.244-0.046,0.439-0.11,0.583-0.191
			c0.145-0.081,0.246-0.178,0.303-0.292C165.993,62.374,166.021,62.251,166.021,62.118z M164.061,56.93
			c0.438,0,0.754-0.109,0.95-0.328c0.196-0.218,0.294-0.501,0.294-0.848c0-0.358-0.098-0.639-0.294-0.844
			c-0.196-0.205-0.513-0.307-0.95-0.307s-0.754,0.102-0.95,0.307c-0.196,0.205-0.294,0.486-0.294,0.844
			c0,0.17,0.024,0.327,0.072,0.469s0.124,0.266,0.226,0.371c0.103,0.105,0.231,0.188,0.388,0.247S163.845,56.93,164.061,56.93z"/>
	</g>
	<path fill="#5A5B5D" d="M75.003,12.966c-0.15-0.657-0.547-1.35-1.185-2.076c-0.635-0.723-1.35-1.185-2.141-1.383
		c-0.792-0.195-1.846-0.297-3.164-0.297h-2.201v0.037h-11.97c-1.318,0-2.372,0.102-3.165,0.297c-0.791,0.198-1.505,0.66-2.141,1.383
		c-0.637,0.727-1.034,1.419-1.185,2.076c-0.154,0.66-0.232,1.604-0.232,2.836v19.178c0,1.975,0.69,3.592,2.073,4.843
		c1.384,1.252,3.048,1.882,4.978,1.882h12.457c0.231,0,0.439-0.027,0.662-0.037h0.394c1.162,0,2.213-0.256,3.18-0.711
		c0.487-0.198,0.949-0.425,1.367-0.703c1.668-1.144,2.504-2.835,2.504-5.076v-0.235v-4.773V15.803
		C75.236,14.57,75.158,13.626,75.003,12.966z M66.007,36.991h-9.159V13.925h9.159V36.991z"/>
</g>
</svg>
